<?xml version="1.0" encoding="utf-8"?>
<!-- Generator: Adobe Illustrator 21.0.0, SVG Export Plug-In . SVG Version: 6.00 Build 0)  -->
<svg version="1.1" id="圖層_1" xmlns="http://www.w3.org/2000/svg" xmlns:xlink="http://www.w3.org/1999/xlink" x="0px" y="0px"
	 viewBox="0 0 86 66" style="enable-background:new 0 0 86 66;" xml:space="preserve">
<style type="text/css">
	.st0{fill:#221815;}
	.st1{fill:#E63027;}
	.st2{fill:#007940;}
</style>
<path class="st0" d="M30,26.1h4.6l-4.3,10.7c-0.3,0.6-0.5,1.2-0.8,1.7c-0.2,0.4-0.5,0.8-0.8,1c-0.3,0.2-0.7,0.4-1.1,0.6
	c-0.5,0.1-1.2,0.2-2,0.2c-0.6,0-1.1-0.1-1.6-0.2c-0.5-0.1-1-0.2-1.3-0.4l-0.1,0h-0.9L20.3,43l0.4,0.1c0.5,0.1,1.1,0.2,1.9,0.3
	c0.8,0.1,1.4,0.1,1.9,0.1c2.1,0,4-0.5,5.7-1.5c1.7-1,3-2.5,3.7-4.3L40,23h-8.7L30,26.1z"/>
<polygon class="st0" points="63.6,23 58.4,23 44.9,32.2 48.7,23 44.6,23 36.3,43.3 40.4,43.3 43.2,36.4 45.4,35 50.4,43.3 
	55.7,43.3 49.4,32.6 "/>
<polygon class="st0" points="81,23 71.6,33 70.3,23 65.3,23 57.1,43.3 61,43.3 67,28.5 68.2,38 70.7,38 79.7,28.5 73.6,43.3 
	77.7,43.3 86,23 "/>
<path class="st1" d="M38.2,11.9V4c0-2.2-1.8-4-4-4h-2.3c-2.2,0-4,1.8-4,4v7.9c0,0.1,0,0.2,0,0.3h10.3C38.2,12.1,38.2,12,38.2,11.9z"
	/>
<path class="st1" d="M48.7,18l4.3-6.7c1.2-1.8,0.6-4.3-1.2-5.5l-2-1.3C48,3.5,45.5,4,44.3,5.8L40,12.5c-0.1,0.1-0.1,0.2-0.2,0.3
	l8.6,5.5C48.6,18.2,48.7,18.1,48.7,18z"/>
<path class="st1" d="M13.7,43.2l-5.9,5.3c-1.6,1.5-1.8,4-0.3,5.6l1.6,1.7c1.5,1.6,4,1.7,5.6,0.3l5.9-5.3c0.1-0.1,0.2-0.2,0.3-0.2
	L13.9,43C13.9,43,13.8,43.1,13.7,43.2z"/>
<path class="st1" d="M11.2,31.3l-7.9,1.3C1.1,33-0.3,35,0.1,37.2l0.4,2.3C0.8,41.6,2.9,43,5,42.7l7.9-1.3c0.1,0,0.2,0,0.3-0.1
	l-1.7-10.1C11.4,31.2,11.3,31.2,11.2,31.3z"/>
<path class="st1" d="M15.5,19.9l-7.3-3.1c-2-0.9-4.4,0.1-5.2,2.1L2,21c-0.9,2,0.1,4.3,2.1,5.2l7.3,3.1c0.1,0.1,0.2,0.1,0.3,0.1
	l4-9.4C15.7,20,15.6,19.9,15.5,19.9z"/>
<path class="st1" d="M25.3,12.6l-4.5-6.5c-1.2-1.8-3.7-2.3-5.5-1l-1.9,1.3c-1.8,1.2-2.3,3.7-1,5.5l4.5,6.5c0.1,0.1,0.1,0.2,0.2,0.3
	l8.5-5.8C25.4,12.8,25.3,12.7,25.3,12.6z"/>
<polygon class="st2" points="38,65.8 47.7,62.5 43.8,51 34,54.3 "/>
<polygon class="st2" points="19.5,63.6 29.5,66 32.4,54.1 22.4,51.7 "/>
</svg>
